<svg width="295" height="138" viewBox="0 0 295 138" fill="none" xmlns="http://www.w3.org/2000/svg">
<g filter="url(#filter0_d_14_13)">
<path d="M140.872 112V95.44H145.72L149.944 104.464L154.168 95.44H159.016V112H154.84V103.072L151.624 109.96H148.264L145.048 103.072V112H140.872ZM162.331 107.968V103.264C162.331 100.576 163.675 99.232 166.363 99.232H169.483C172.171 99.232 173.515 100.576 173.515 103.264V107.08H166.339V108.208C166.339 108.416 166.443 108.52 166.651 108.52H173.035V110.752L171.355 112H166.363C163.675 112 162.331 110.656 162.331 107.968ZM166.339 104.056H169.507V103.024C169.507 102.816 169.403 102.712 169.195 102.712H166.651C166.443 102.712 166.339 102.816 166.339 103.024V104.056ZM176.585 112V99.232H183.737C186.425 99.232 187.769 100.576 187.769 103.264V112H183.761V103.024C183.761 102.816 183.657 102.712 183.449 102.712H180.593V112H176.585ZM190.833 107.968V99.232H194.841V108.208C194.841 108.416 194.945 108.52 195.153 108.52H198.009V99.232H202.017V112H194.865C192.177 112 190.833 110.656 190.833 107.968ZM192.225 97.648V94.24H195.585V97.648H192.225ZM197.265 97.648V94.24H200.625V97.648H197.265Z" fill="white"/>
<path d="M140.872 112H140.772V112.1H140.872V112ZM140.872 95.44V95.34H140.772V95.44H140.872ZM145.72 95.44L145.811 95.3976L145.784 95.34H145.72V95.44ZM149.944 104.464L149.853 104.506L149.944 104.7L150.035 104.506L149.944 104.464ZM154.168 95.44V95.34H154.104L154.077 95.3976L154.168 95.44ZM159.016 95.44H159.116V95.34H159.016V95.44ZM159.016 112V112.1H159.116V112H159.016ZM154.84 112H154.74V112.1H154.84V112ZM154.84 103.072H154.94L154.749 103.03L154.84 103.072ZM151.624 109.96V110.06H151.688L151.715 110.002L151.624 109.96ZM148.264 109.96L148.173 110.002L148.2 110.06H148.264V109.96ZM145.048 103.072L145.139 103.03L144.948 103.072H145.048ZM145.048 112V112.1H145.148V112H145.048ZM140.972 112V95.44H140.772V112H140.972ZM140.872 95.54H145.72V95.34H140.872V95.54ZM145.629 95.4824L149.853 104.506L150.035 104.422L145.811 95.3976L145.629 95.4824ZM150.035 104.506L154.259 95.4824L154.077 95.3976L149.853 104.422L150.035 104.506ZM154.168 95.54H159.016V95.34H154.168V95.54ZM158.916 95.44V112H159.116V95.44H158.916ZM159.016 111.9H154.84V112.1H159.016V111.9ZM154.94 112V103.072H154.74V112H154.94ZM154.749 103.03L151.533 109.918L151.715 110.002L154.931 103.114L154.749 103.03ZM151.624 109.86H148.264V110.06H151.624V109.86ZM148.355 109.918L145.139 103.03L144.957 103.114L148.173 110.002L148.355 109.918ZM144.948 103.072V112H145.148V103.072H144.948ZM145.048 111.9H140.872V112.1H145.048V111.9ZM173.515 107.08V107.18H173.615V107.08H173.515ZM166.339 107.08V106.98H166.239V107.08H166.339ZM173.035 108.52H173.135V108.42H173.035V108.52ZM173.035 110.752L173.094 110.832L173.135 110.802V110.752H173.035ZM171.355 112V112.1H171.388L171.414 112.08L171.355 112ZM166.339 104.056H166.239V104.156H166.339V104.056ZM169.507 104.056V104.156H169.607V104.056H169.507ZM162.431 107.968V103.264H162.231V107.968H162.431ZM162.431 103.264C162.431 101.935 162.763 100.957 163.409 100.311C164.056 99.6641 165.034 99.332 166.363 99.332V99.132C165.003 99.132 163.965 99.4719 163.268 100.169C162.571 100.867 162.231 101.905 162.231 103.264H162.431ZM166.363 99.332H169.483V99.132H166.363V99.332ZM169.483 99.332C170.811 99.332 171.789 99.6641 172.436 100.311C173.083 100.957 173.415 101.935 173.415 103.264H173.615C173.615 101.905 173.275 100.867 172.577 100.169C171.88 99.4719 170.842 99.132 169.483 99.132V99.332ZM173.415 103.264V107.08H173.615V103.264H173.415ZM173.515 106.98H166.339V107.18H173.515V106.98ZM166.239 107.08V108.208H166.439V107.08H166.239ZM166.239 108.208C166.239 108.327 166.269 108.435 166.346 108.513C166.423 108.59 166.531 108.62 166.651 108.62V108.42C166.562 108.42 166.514 108.398 166.487 108.371C166.461 108.345 166.439 108.297 166.439 108.208H166.239ZM166.651 108.62H173.035V108.42H166.651V108.62ZM172.935 108.52V110.752H173.135V108.52H172.935ZM172.975 110.672L171.295 111.92L171.414 112.08L173.094 110.832L172.975 110.672ZM171.355 111.9H166.363V112.1H171.355V111.9ZM166.363 111.9C165.034 111.9 164.056 111.568 163.409 110.921C162.763 110.275 162.431 109.297 162.431 107.968H162.231C162.231 109.327 162.571 110.365 163.268 111.063C163.965 111.76 165.003 112.1 166.363 112.1V111.9ZM166.339 104.156H169.507V103.956H166.339V104.156ZM169.607 104.056V103.024H169.407V104.056H169.607ZM169.607 103.024C169.607 102.905 169.577 102.797 169.499 102.719C169.422 102.642 169.314 102.612 169.195 102.612V102.812C169.283 102.812 169.331 102.834 169.358 102.861C169.385 102.887 169.407 102.935 169.407 103.024H169.607ZM169.195 102.612H166.651V102.812H169.195V102.612ZM166.651 102.612C166.531 102.612 166.423 102.642 166.346 102.719C166.269 102.797 166.239 102.905 166.239 103.024H166.439C166.439 102.935 166.461 102.887 166.487 102.861C166.514 102.834 166.562 102.812 166.651 102.812V102.612ZM166.239 103.024V104.056H166.439V103.024H166.239ZM176.585 112H176.485V112.1H176.585V112ZM176.585 99.232V99.132H176.485V99.232H176.585ZM187.769 112V112.1H187.869V112H187.769ZM183.761 112H183.661V112.1H183.761V112ZM180.593 102.712V102.612H180.493V102.712H180.593ZM180.593 112V112.1H180.693V112H180.593ZM176.685 112V99.232H176.485V112H176.685ZM176.585 99.332H183.737V99.132H176.585V99.332ZM183.737 99.332C185.066 99.332 186.044 99.6641 186.69 100.311C187.337 100.957 187.669 101.935 187.669 103.264H187.869C187.869 101.905 187.529 100.867 186.832 100.169C186.134 99.4719 185.097 99.132 183.737 99.132V99.332ZM187.669 103.264V112H187.869V103.264H187.669ZM187.769 111.9H183.761V112.1H187.769V111.9ZM183.861 112V103.024H183.661V112H183.861ZM183.861 103.024C183.861 102.905 183.831 102.797 183.754 102.719C183.676 102.642 183.569 102.612 183.449 102.612V102.812C183.538 102.812 183.586 102.834 183.612 102.861C183.639 102.887 183.661 102.935 183.661 103.024H183.861ZM183.449 102.612H180.593V102.812H183.449V102.612ZM180.493 102.712V112H180.693V102.712H180.493ZM180.593 111.9H176.585V112.1H180.593V111.9ZM190.833 99.232V99.132H190.733V99.232H190.833ZM194.841 99.232H194.941V99.132H194.841V99.232ZM198.009 108.52V108.62H198.109V108.52H198.009ZM198.009 99.232V99.132H197.909V99.232H198.009ZM202.017 99.232H202.117V99.132H202.017V99.232ZM202.017 112V112.1H202.117V112H202.017ZM192.225 97.648H192.125V97.748H192.225V97.648ZM192.225 94.24V94.14H192.125V94.24H192.225ZM195.585 94.24H195.685V94.14H195.585V94.24ZM195.585 97.648V97.748H195.685V97.648H195.585ZM197.265 97.648H197.165V97.748H197.265V97.648ZM197.265 94.24V94.14H197.165V94.24H197.265ZM200.625 94.24H200.725V94.14H200.625V94.24ZM200.625 97.648V97.748H200.725V97.648H200.625ZM190.933 107.968V99.232H190.733V107.968H190.933ZM190.833 99.332H194.841V99.132H190.833V99.332ZM194.741 99.232V108.208H194.941V99.232H194.741ZM194.741 108.208C194.741 108.327 194.771 108.435 194.848 108.513C194.926 108.59 195.033 108.62 195.153 108.62V108.42C195.064 108.42 195.016 108.398 194.99 108.371C194.963 108.345 194.941 108.297 194.941 108.208H194.741ZM195.153 108.62H198.009V108.42H195.153V108.62ZM198.109 108.52V99.232H197.909V108.52H198.109ZM198.009 99.332H202.017V99.132H198.009V99.332ZM201.917 99.232V112H202.117V99.232H201.917ZM202.017 111.9H194.865V112.1H202.017V111.9ZM194.865 111.9C193.536 111.9 192.558 111.568 191.912 110.921C191.265 110.275 190.933 109.297 190.933 107.968H190.733C190.733 109.327 191.073 110.365 191.77 111.063C192.468 111.76 193.505 112.1 194.865 112.1V111.9ZM192.325 97.648V94.24H192.125V97.648H192.325ZM192.225 94.34H195.585V94.14H192.225V94.34ZM195.485 94.24V97.648H195.685V94.24H195.485ZM195.585 97.548H192.225V97.748H195.585V97.548ZM197.365 97.648V94.24H197.165V97.648H197.365ZM197.265 94.34H200.625V94.14H197.265V94.34ZM200.525 94.24V97.648H200.725V94.24H200.525ZM200.625 97.548H197.265V97.748H200.625V97.548Z" fill="black"/>
</g>
<path d="M6.528 73.104V40.656C6.528 29.392 12.16 23.76 23.424 23.76H48.288L55.776 29.52V38.832H24.288C23.584 38.832 23.232 39.184 23.232 39.888V73.872C23.232 74.576 23.584 74.928 24.288 74.928H55.776V84.24L48.288 90H23.424C12.16 90 6.528 84.368 6.528 73.104ZM80.5305 90C69.7785 90 64.4025 84.784 64.4025 74.352C64.4025 63.92 69.7785 58.704 80.5305 58.704H91.5705V54.096C91.5705 53.264 91.1545 52.848 90.3225 52.848H70.0665V43.92L76.7865 38.928H91.4745C102.227 38.928 107.603 44.304 107.603 55.056V90H80.5305ZM80.4345 74.832C80.4345 75.664 80.8505 76.08 81.6825 76.08H91.5705V70.8H81.6825C80.8505 70.8 80.4345 71.216 80.4345 72.048V74.832ZM120.247 90V35.088C120.247 24.336 125.623 18.96 136.375 18.96H146.167L152.887 23.952V32.88H137.527C136.695 32.88 136.279 33.296 136.279 34.128V38.928H151.927V52.848H136.279V90H120.247ZM160.541 73.872V55.056C160.541 44.304 165.917 38.928 176.669 38.928H189.149C199.901 38.928 205.277 44.304 205.277 55.056V70.32H176.573V74.832C176.573 75.664 176.989 76.08 177.821 76.08H203.357V85.008L196.637 90H176.669C165.917 90 160.541 84.624 160.541 73.872ZM176.573 58.224H189.245V54.096C189.245 53.264 188.829 52.848 187.997 52.848H177.821C176.989 52.848 176.573 53.264 176.573 54.096V58.224Z" fill="white"/>
<defs>
<filter id="filter0_d_14_13" x="140.872" y="94.24" width="72.1449" height="28.76" filterUnits="userSpaceOnUse" color-interpolation-filters="sRGB">
<feFlood flood-opacity="0" result="BackgroundImageFix"/>
<feColorMatrix in="SourceAlpha" type="matrix" values="0 0 0 0 0 0 0 0 0 0 0 0 0 0 0 0 0 0 127 0" result="hardAlpha"/>
<feOffset dx="8" dy="8"/>
<feGaussianBlur stdDeviation="1.5"/>
<feComposite in2="hardAlpha" operator="out"/>
<feColorMatrix type="matrix" values="0 0 0 0 0 0 0 0 0 0 0 0 0 0 0 0 0 0 0.25 0"/>
<feBlend mode="normal" in2="BackgroundImageFix" result="effect1_dropShadow_14_13"/>
<feBlend mode="normal" in="SourceGraphic" in2="effect1_dropShadow_14_13" result="shape"/>
</filter>
</defs>
</svg>
